<svg width="82" height="82" viewBox="0 0 82 82" fill="none" xmlns="http://www.w3.org/2000/svg">
<path d="M44.8438 67.9062H67.9062V44.8438H44.8438V67.9062ZM47.4062 47.4062H65.3438V65.3438H47.4062V47.4062Z" fill="url(#paint0_linear)"/>
<path d="M70.4688 39.7188V32.0312H62.7812V39.7188H60.2188V32.0312H55.3948C56.8068 30.2747 57.6562 28.0478 57.6562 25.625C57.6562 22.5923 56.3045 19.835 54.1341 17.9375H64.0625C64.7685 17.9375 65.3438 18.5128 65.3438 19.2188V22.017C63.8562 22.5474 62.7812 23.9568 62.7812 25.625C62.7812 27.7442 64.5058 29.4688 66.625 29.4688C68.7442 29.4688 70.4688 27.7442 70.4688 25.625C70.4688 23.9568 69.3938 22.5474 67.9062 22.017V19.2188C67.9062 17.0996 66.1817 15.375 64.0625 15.375H50.3582C49.8983 14.4051 49.2833 13.5415 48.5363 12.8125H74.3125C75.0185 12.8125 75.5938 13.3878 75.5938 14.0938V16.892C74.1062 17.4224 73.0312 18.8318 73.0312 20.5C73.0312 22.6192 74.7558 24.3438 76.875 24.3438C78.9942 24.3438 80.7188 22.6192 80.7188 20.5C80.7188 18.8318 79.6438 17.4224 78.1562 16.892V14.0938C78.1562 11.9746 76.4317 10.25 74.3125 10.25H42.2812V10.2679C42.1839 10.2679 42.0903 10.2513 41.9917 10.2551C40.8206 5.05837 36.194 1.28125 30.75 1.28125C26.1977 1.28125 22.1374 3.93216 20.2745 7.99756C19.5147 7.79128 18.7332 7.6875 17.9375 7.6875C13.3519 7.6875 9.55813 11.1482 9.03538 15.694C4.54844 16.8215 1.28125 20.9177 1.28125 25.625C1.28125 29.4085 3.34791 32.7129 6.40625 34.4887V64.0625C6.40625 66.1817 8.13081 67.9062 10.25 67.9062H16.892C17.4224 69.3938 18.8318 70.4688 20.5 70.4688C22.6192 70.4688 24.3438 68.7442 24.3438 66.625C24.3438 64.5058 22.6192 62.7812 20.5 62.7812C18.8318 62.7812 17.4224 63.8562 16.892 65.3438H10.25C9.54403 65.3438 8.96875 64.7685 8.96875 64.0625V35.538C9.79003 35.7507 10.6446 35.875 11.5312 35.875V53.8125C11.5312 55.9317 13.2558 57.6562 15.375 57.6562H19.4545C19.9849 59.1438 21.3943 60.2188 23.0625 60.2188C25.1817 60.2188 26.9062 58.4942 26.9062 56.375C26.9062 54.2558 25.1817 52.5312 23.0625 52.5312C21.3943 52.5312 19.9849 53.6062 19.4545 55.0938H15.375C14.669 55.0938 14.0938 54.5185 14.0938 53.8125V35.875H16.6562V43.5625C16.6562 45.6817 18.3808 47.4062 20.5 47.4062H22.017C22.5474 48.8938 23.9568 49.9688 25.625 49.9688C27.7442 49.9688 29.4688 48.2442 29.4688 46.125C29.4688 44.0058 27.7442 42.2812 25.625 42.2812C23.9568 42.2812 22.5474 43.3562 22.017 44.8438H20.5C19.794 44.8438 19.2188 44.2685 19.2188 43.5625V35.875H42.2812V39.7188C40.868 39.7188 39.7188 40.868 39.7188 42.2812H32.0312V49.9688H39.7188V52.5312H32.0312V60.2188H39.7188V62.7812H32.0312V70.4688H39.7188C39.7188 71.882 40.868 73.0312 42.2812 73.0312V80.7188H49.9688V73.0312H52.5312V80.7188H60.2188V73.0312H62.7812V80.7188H70.4688V73.0312C71.882 73.0312 73.0312 71.882 73.0312 70.4688H80.7188V62.7812H73.0312V60.2188H80.7188V52.5312H73.0312V49.9688H80.7188V42.2812H73.0312C73.0312 40.868 71.882 39.7188 70.4688 39.7188ZM66.625 26.9062C65.919 26.9062 65.3438 26.331 65.3438 25.625C65.3438 24.919 65.919 24.3438 66.625 24.3438C67.331 24.3438 67.9062 24.919 67.9062 25.625C67.9062 26.331 67.331 26.9062 66.625 26.9062ZM76.875 21.7812C76.169 21.7812 75.5938 21.206 75.5938 20.5C75.5938 19.794 76.169 19.2188 76.875 19.2188C77.581 19.2188 78.1562 19.794 78.1562 20.5C78.1562 21.206 77.581 21.7812 76.875 21.7812ZM20.5 65.3438C21.206 65.3438 21.7812 65.919 21.7812 66.625C21.7812 67.331 21.206 67.9062 20.5 67.9062C19.794 67.9062 19.2188 67.331 19.2188 66.625C19.2188 65.919 19.794 65.3438 20.5 65.3438ZM23.0625 55.0938C23.7685 55.0938 24.3438 55.669 24.3438 56.375C24.3438 57.081 23.7685 57.6562 23.0625 57.6562C22.3565 57.6562 21.7812 57.081 21.7812 56.375C21.7812 55.669 22.3565 55.0938 23.0625 55.0938ZM25.625 44.8438C26.331 44.8438 26.9062 45.419 26.9062 46.125C26.9062 46.831 26.331 47.4062 25.625 47.4062C24.919 47.4062 24.3438 46.831 24.3438 46.125C24.3438 45.419 24.919 44.8438 25.625 44.8438ZM34.5938 47.4062V44.8438H39.7188V47.4062H34.5938ZM34.5938 57.6562V55.0938H39.7188V57.6562H34.5938ZM34.5938 67.9062V65.3438H39.7188V67.9062H34.5938ZM65.3438 34.5938H67.9062V39.7188H65.3438V34.5938ZM57.6562 39.7188H55.0938V34.5938H57.6562V39.7188ZM52.5312 34.4887V39.7188H49.9688V35.538C50.8784 35.3023 51.7382 34.9487 52.5312 34.4887ZM3.84375 25.625C3.84375 21.8299 6.67788 18.5627 10.4358 18.0259L11.5312 17.7671V16.6562C11.5312 13.1238 14.4051 10.25 17.9375 10.25C18.8241 10.25 19.6864 10.4307 20.5013 10.7881L21.7928 11.3532L22.2335 10.0142C23.4456 6.32425 26.8678 3.84375 30.75 3.84375C35.3177 3.84375 39.1473 7.26341 39.6572 11.8003L39.8097 13.1584L41.155 12.9188C41.5561 12.8471 41.9238 12.8125 42.2812 12.8125C45.1077 12.8125 47.5677 14.6255 48.4018 17.3238L48.6145 18.0093L49.3102 18.1861C52.7158 19.0548 55.0938 22.1144 55.0938 25.625C55.0938 29.8647 51.6459 33.3125 47.4062 33.3125H11.5312C7.29159 33.3125 3.84375 29.8647 3.84375 25.625ZM44.8438 35.875H47.4062V39.7188H44.8438V35.875ZM47.4062 78.1562H44.8438V73.0312H47.4062V78.1562ZM57.6562 78.1562H55.0938V73.0312H57.6562V78.1562ZM67.9062 78.1562H65.3438V73.0312H67.9062V78.1562ZM42.2812 70.4688V42.2812H70.4688L70.47 70.4688H42.2812ZM78.1562 65.3438V67.9062H73.0312V65.3438H78.1562ZM78.1562 55.0938V57.6562H73.0312V55.0938H78.1562ZM78.1562 44.8438V47.4062H73.0312V44.8438H78.1562Z" fill="url(#paint1_linear)"/>
<path d="M20.5397 25.625H25.5853L26.9447 31.0613L29.4303 30.4399L25.3444 14.0938H20.7806L16.6947 30.4387L19.1803 31.0601L20.5397 25.625ZM23.3431 16.6562L24.9447 23.0625H21.1804L22.7819 16.6562H23.3431Z" fill="url(#paint2_linear)"/>
<path d="M39.7188 28.1875H37.1562V16.6562H39.7188V14.0938H32.0312V16.6562H34.5938V28.1875H32.0312V30.75H39.7188V28.1875Z" fill="url(#paint3_linear)"/>
<defs>
<linearGradient id="paint0_linear" x1="56.375" y1="67.9062" x2="56.375" y2="44.8438" gradientUnits="userSpaceOnUse">
<stop stop-color="#9F2FFF"/>
<stop offset="1" stop-color="#0BB1D3"/>
</linearGradient>
<linearGradient id="paint1_linear" x1="41" y1="80.7188" x2="41" y2="1.28125" gradientUnits="userSpaceOnUse">
<stop stop-color="#9F2FFF"/>
<stop offset="1" stop-color="#0BB1D3"/>
</linearGradient>
<linearGradient id="paint2_linear" x1="23.0625" y1="31.0613" x2="23.0625" y2="14.0938" gradientUnits="userSpaceOnUse">
<stop stop-color="#9F2FFF"/>
<stop offset="1" stop-color="#0BB1D3"/>
</linearGradient>
<linearGradient id="paint3_linear" x1="35.875" y1="30.75" x2="35.875" y2="14.0938" gradientUnits="userSpaceOnUse">
<stop stop-color="#9F2FFF"/>
<stop offset="1" stop-color="#0BB1D3"/>
</linearGradient>
</defs>
</svg>
