<svg width="82" height="82" viewBox="0 0 82 82" fill="none" xmlns="http://www.w3.org/2000/svg">
<path d="M17.9375 19.2188V17.9375C17.9375 17.2315 17.3622 16.6562 16.6562 16.6562H14.0938C11.9746 16.6562 10.25 14.9317 10.25 12.8125V8.96875H14.0938V6.40625H16.6562V8.96875C18.7754 8.96875 20.5 10.6933 20.5 12.8125H17.9375C17.9375 12.1065 17.3622 11.5312 16.6562 11.5312H12.8125V12.8125C12.8125 13.5185 13.3878 14.0938 14.0938 14.0938H16.6562C18.7754 14.0938 20.5 15.8183 20.5 17.9375V21.7812H16.6562V24.3438H14.0938V21.7812C11.9746 21.7812 10.25 20.0567 10.25 17.9375H12.8125C12.8125 18.6435 13.3878 19.2188 14.0938 19.2188H17.9375ZM1.28125 15.375C1.28125 7.60422 7.60422 1.28125 15.375 1.28125C23.1458 1.28125 29.4688 7.60422 29.4688 15.375C29.4688 23.1458 23.1458 29.4688 15.375 29.4688C7.60422 29.4688 1.28125 23.1458 1.28125 15.375ZM3.84375 15.375C3.84375 21.7326 9.01744 26.9062 15.375 26.9062C21.7326 26.9062 26.9062 21.7326 26.9062 15.375C26.9062 9.01744 21.7326 3.84375 15.375 3.84375C9.01744 3.84375 3.84375 9.01744 3.84375 15.375ZM1.28125 66.625C1.28125 58.8542 7.60422 52.5312 15.375 52.5312C23.1458 52.5312 29.4688 58.8542 29.4688 66.625C29.4688 74.3958 23.1458 80.7188 15.375 80.7188C7.60422 80.7188 1.28125 74.3958 1.28125 66.625ZM3.84375 66.625C3.84375 72.9826 9.01744 78.1562 15.375 78.1562C21.7326 78.1562 26.9062 72.9826 26.9062 66.625C26.9062 60.2674 21.7326 55.0938 15.375 55.0938C9.01744 55.0938 3.84375 60.2674 3.84375 66.625ZM47.4062 37.1562C47.4062 38.6848 46.7336 40.0608 45.6676 41C46.7336 41.9392 47.4062 43.3152 47.4062 44.8438C47.4062 47.6702 45.1077 49.9688 42.2812 49.9688V52.5312H39.7188V49.9688H37.1562V32.0312H39.7188V29.4688H42.2812V32.0312C45.1077 32.0312 47.4062 34.3298 47.4062 37.1562ZM44.8438 44.8438C44.8438 43.4305 43.6945 42.2812 42.2812 42.2812H39.7188V47.4062H42.2812C43.6945 47.4062 44.8438 46.257 44.8438 44.8438ZM44.8438 37.1562C44.8438 35.743 43.6945 34.5938 42.2812 34.5938H39.7188V39.7188H42.2812C43.6945 39.7188 44.8438 38.5695 44.8438 37.1562ZM64.5929 39.7188H57.5909C57.6242 40.1428 57.6562 40.5669 57.6562 41C57.6562 41.4331 57.6242 41.8572 57.5909 42.2812H64.5929L67.1554 44.8438H73.267C73.7974 43.3562 75.2068 42.2812 76.875 42.2812C78.9942 42.2812 80.7188 44.0058 80.7188 46.125C80.7188 48.2442 78.9942 49.9688 76.875 49.9688C75.2068 49.9688 73.7974 48.8938 73.267 47.4062H66.0946L63.5321 44.8438H57.1912C55.7433 50.9425 50.9425 55.7421 44.8438 57.1912V63.5321L47.4062 66.0946V73.267C48.8938 73.7974 49.9688 75.2068 49.9688 76.875C49.9688 78.9942 48.2442 80.7188 46.125 80.7188C44.0058 80.7188 42.2812 78.9942 42.2812 76.875C42.2812 75.2068 43.3562 73.7974 44.8438 73.267V67.1554L42.2812 64.5929V57.5909C41.8572 57.6242 41.4331 57.6562 41 57.6562C40.5669 57.6562 40.1428 57.6242 39.7188 57.5909V64.5929L37.1562 67.1554V73.267C38.6438 73.7974 39.7188 75.2068 39.7188 76.875C39.7188 78.9942 37.9942 80.7188 35.875 80.7188C33.7558 80.7188 32.0312 78.9942 32.0312 76.875C32.0312 75.2068 33.1062 73.7974 34.5938 73.267V66.0946L37.1562 63.5321V57.1912C31.0575 55.7433 26.2579 50.9425 24.8088 44.8438H18.4679L15.9054 47.4062H8.733C8.20256 48.8938 6.79319 49.9688 5.125 49.9688C3.00581 49.9688 1.28125 48.2442 1.28125 46.125C1.28125 44.0058 3.00581 42.2812 5.125 42.2812C6.79319 42.2812 8.20256 43.3562 8.733 44.8438H14.8446L17.4071 42.2812H24.4091C24.3758 41.8572 24.3438 41.4331 24.3438 41C24.3438 40.5669 24.3758 40.1428 24.4091 39.7188H17.4071L14.8446 37.1562H8.733C8.20256 38.6438 6.79319 39.7188 5.125 39.7188C3.00581 39.7188 1.28125 37.9942 1.28125 35.875C1.28125 33.7558 3.00581 32.0312 5.125 32.0312C6.79319 32.0312 8.20256 33.1062 8.733 34.5938H15.9054L18.4679 37.1562H24.8088C26.2567 31.0575 31.0575 26.2579 37.1562 24.8088V18.4679L34.5938 15.9054V8.733C33.1062 8.20256 32.0312 6.79319 32.0312 5.125C32.0312 3.00581 33.7558 1.28125 35.875 1.28125C37.9942 1.28125 39.7188 3.00581 39.7188 5.125C39.7188 6.79319 38.6438 8.20256 37.1562 8.733V14.8446L39.7188 17.4071V24.4091C40.1428 24.3758 40.5669 24.3438 41 24.3438C41.4331 24.3438 41.8572 24.3758 42.2812 24.4091V17.4071L44.8438 14.8446V8.733C43.3562 8.20256 42.2812 6.79319 42.2812 5.125C42.2812 3.00581 44.0058 1.28125 46.125 1.28125C48.2442 1.28125 49.9688 3.00581 49.9688 5.125C49.9688 6.79319 48.8938 8.20256 47.4062 8.733V15.9054L44.8438 18.4679V24.8088C50.9425 26.2567 55.7421 31.0575 57.1912 37.1562H63.5321L66.0946 34.5938H73.267C73.7974 33.1062 75.2068 32.0312 76.875 32.0312C78.9942 32.0312 80.7188 33.7558 80.7188 35.875C80.7188 37.9942 78.9942 39.7188 76.875 39.7188C75.2068 39.7188 73.7974 38.6438 73.267 37.1562H67.1554L64.5929 39.7188ZM75.5938 35.875C75.5938 36.581 76.169 37.1562 76.875 37.1562C77.581 37.1562 78.1562 36.581 78.1562 35.875C78.1562 35.169 77.581 34.5938 76.875 34.5938C76.169 34.5938 75.5938 35.169 75.5938 35.875ZM44.8438 5.125C44.8438 5.83097 45.419 6.40625 46.125 6.40625C46.831 6.40625 47.4062 5.83097 47.4062 5.125C47.4062 4.41903 46.831 3.84375 46.125 3.84375C45.419 3.84375 44.8438 4.41903 44.8438 5.125ZM34.5938 5.125C34.5938 5.83097 35.169 6.40625 35.875 6.40625C36.581 6.40625 37.1562 5.83097 37.1562 5.125C37.1562 4.41903 36.581 3.84375 35.875 3.84375C35.169 3.84375 34.5938 4.41903 34.5938 5.125ZM6.40625 35.875C6.40625 35.169 5.83097 34.5938 5.125 34.5938C4.41903 34.5938 3.84375 35.169 3.84375 35.875C3.84375 36.581 4.41903 37.1562 5.125 37.1562C5.83097 37.1562 6.40625 36.581 6.40625 35.875ZM6.40625 46.125C6.40625 45.419 5.83097 44.8438 5.125 44.8438C4.41903 44.8438 3.84375 45.419 3.84375 46.125C3.84375 46.831 4.41903 47.4062 5.125 47.4062C5.83097 47.4062 6.40625 46.831 6.40625 46.125ZM37.1562 76.875C37.1562 76.169 36.581 75.5938 35.875 75.5938C35.169 75.5938 34.5938 76.169 34.5938 76.875C34.5938 77.581 35.169 78.1562 35.875 78.1562C36.581 78.1562 37.1562 77.581 37.1562 76.875ZM47.4062 76.875C47.4062 76.169 46.831 75.5938 46.125 75.5938C45.419 75.5938 44.8438 76.169 44.8438 76.875C44.8438 77.581 45.419 78.1562 46.125 78.1562C46.831 78.1562 47.4062 77.581 47.4062 76.875ZM75.5938 46.125C75.5938 46.831 76.169 47.4062 76.875 47.4062C77.581 47.4062 78.1562 46.831 78.1562 46.125C78.1562 45.419 77.581 44.8438 76.875 44.8438C76.169 44.8438 75.5938 45.419 75.5938 46.125ZM55.0938 41C55.0938 33.2292 48.7708 26.9062 41 26.9062C33.2292 26.9062 26.9062 33.2292 26.9062 41C26.9062 48.7708 33.2292 55.0938 41 55.0938C48.7708 55.0938 55.0938 48.7708 55.0938 41ZM80.7188 15.375C80.7188 23.1458 74.3958 29.4688 66.625 29.4688C58.8542 29.4688 52.5312 23.1458 52.5312 15.375C52.5312 7.60422 58.8542 1.28125 66.625 1.28125C74.3958 1.28125 80.7188 7.60422 80.7188 15.375ZM78.1562 15.375C78.1562 9.01744 72.9826 3.84375 66.625 3.84375C60.2674 3.84375 55.0938 9.01744 55.0938 15.375C55.0938 21.7326 60.2674 26.9062 66.625 26.9062C72.9826 26.9062 78.1562 21.7326 78.1562 15.375ZM80.7188 66.625C80.7188 74.3958 74.3958 80.7188 66.625 80.7188C58.8542 80.7188 52.5312 74.3958 52.5312 66.625C52.5312 58.8542 58.8542 52.5312 66.625 52.5312C74.3958 52.5312 80.7188 58.8542 80.7188 66.625ZM78.1562 66.625C78.1562 60.2674 72.9826 55.0938 66.625 55.0938C60.2674 55.0938 55.0938 60.2674 55.0938 66.625C55.0938 72.9826 60.2674 78.1562 66.625 78.1562C72.9826 78.1562 78.1562 72.9826 78.1562 66.625ZM66.625 8.96875C68.0382 8.96875 69.1875 10.118 69.1875 11.5312H71.75C71.75 8.70481 69.4514 6.40625 66.625 6.40625C63.7986 6.40625 61.5 8.70481 61.5 11.5312H58.9375V14.0938H61.5V16.6562H58.9375V19.2188H61.5C61.5 22.0452 63.7986 24.3438 66.625 24.3438C69.4514 24.3438 71.75 22.0452 71.75 19.2188H69.1875C69.1875 20.632 68.0382 21.7812 66.625 21.7812C65.2118 21.7812 64.0625 20.632 64.0625 19.2188H66.625V16.6562H64.0625V14.0938H66.625V11.5312H64.0625C64.0625 10.118 65.2118 8.96875 66.625 8.96875ZM72.6558 59.8433L70.8442 58.0317L66.625 62.2508L62.4058 58.0317L60.5942 59.8433L65.3438 64.5929V65.3438H62.7812V67.9062H65.3438V70.4688H62.7812V73.0312H65.3438V75.5938H67.9062V73.0312H70.4688V70.4688H67.9062V67.9062H70.4688V65.3438H67.9062V64.5929L72.6558 59.8433ZM10.25 75.5938H19.2188V73.0312H12.8125V67.9062H15.375V65.3438H12.8125V64.0625C12.8125 61.9433 14.5371 60.2188 16.6562 60.2188H19.2188V57.6562H16.6562C13.1238 57.6562 10.25 60.5301 10.25 64.0625V65.3438H7.6875V67.9062H10.25V75.5938Z" fill="url(#paint0_linear)"/>
<defs>
<linearGradient id="paint0_linear" x1="41" y1="80.7188" x2="41" y2="1.28125" gradientUnits="userSpaceOnUse">
<stop stop-color="#9F2FFF"/>
<stop offset="1" stop-color="#0BB1D3"/>
</linearGradient>
</defs>
</svg>
