<svg width="82" height="82" viewBox="0 0 82 82" fill="none" xmlns="http://www.w3.org/2000/svg">
<path d="M41 17.8548C39.5412 17.8548 38.3548 16.6685 38.3548 15.2097C38.3548 13.7508 39.5412 12.5645 41 12.5645C42.4588 12.5645 43.6452 13.7508 43.6452 15.2097H46.2903C46.2903 12.7523 44.5974 10.6983 42.3226 10.1071V7.27417H39.6774V10.1071C37.4026 10.6983 35.7097 12.7523 35.7097 15.2097C35.7097 18.1273 38.0824 20.5 41 20.5C42.4588 20.5 43.6452 21.6863 43.6452 23.1451C43.6452 24.6039 42.4588 25.7903 41 25.7903C39.5412 25.7903 38.3548 24.6039 38.3548 23.1451H35.7097C35.7097 25.6025 37.4026 27.6565 39.6774 28.2477V31.0806H42.3226V28.2477C44.5974 27.6565 46.2903 25.6025 46.2903 23.1451C46.2903 20.2275 43.9176 17.8548 41 17.8548Z" fill="url(#paint0_linear)"/>
<path d="M52.9032 17.8549H50.2581V20.5H52.9032V17.8549Z" fill="url(#paint1_linear)"/>
<path d="M31.7419 17.8549H29.0968V20.5H31.7419V17.8549Z" fill="url(#paint2_linear)"/>
<path d="M41 1.98389C31.5197 1.98389 23.8065 9.69718 23.8065 19.1774C23.8065 28.6577 31.5197 36.371 41 36.371C44.6265 36.371 48.0943 35.2547 51.0305 33.1439L49.4857 30.996C47.0032 32.7815 44.0684 33.7258 41 33.7258C32.9786 33.7258 26.4516 27.1989 26.4516 19.1774C26.4516 11.156 32.9786 4.62905 41 4.62905C49.0215 4.62905 55.5484 11.156 55.5484 19.1774C55.5484 22.763 54.2324 26.207 51.8438 28.8759L53.8145 30.6402C56.6382 27.4859 58.1936 23.415 58.1936 19.1774C58.1936 9.69718 50.4803 1.98389 41 1.98389Z" fill="url(#paint3_linear)"/>
<path d="M41 44.3064C38.8125 44.3064 37.0323 46.0866 37.0323 48.2741C37.0323 50.4617 38.8125 52.2419 41 52.2419C43.1875 52.2419 44.9677 50.4617 44.9677 48.2741C44.9677 46.0866 43.1875 44.3064 41 44.3064ZM41 49.5967C40.2713 49.5967 39.6774 49.0029 39.6774 48.2741C39.6774 47.5454 40.2713 46.9516 41 46.9516C41.7287 46.9516 42.3226 47.5454 42.3226 48.2741C42.3226 49.0029 41.7287 49.5967 41 49.5967Z" fill="url(#paint4_linear)"/>
<path d="M65.2442 32.2246C65.7891 31.5448 66.129 30.6944 66.129 29.758C66.129 27.5705 64.3488 25.7903 62.1613 25.7903C59.9737 25.7903 58.1935 27.5705 58.1935 29.758C58.1935 31.9456 59.9737 33.7258 62.1613 33.7258C62.4523 33.7258 62.734 33.6901 63.0077 33.6305C64.7152 36.1911 65.9677 38.9896 66.6964 41.976L69.2662 41.3478C68.4687 38.0837 67.1038 35.0245 65.2442 32.2246ZM62.1613 31.0806C61.4325 31.0806 60.8387 30.4868 60.8387 29.758C60.8387 29.0293 61.4325 28.4354 62.1613 28.4354C62.89 28.4354 63.4839 29.0293 63.4839 29.758C63.4839 30.4868 62.89 31.0806 62.1613 31.0806Z" fill="url(#paint5_linear)"/>
<path d="M16.9899 37.2346C18.3363 34.3064 20.1641 31.6573 22.4879 29.3798L20.6362 27.4899C18.0149 30.0596 15.9622 33.0566 14.473 36.3789C12.3199 36.4199 10.5807 38.1763 10.5807 40.3387C10.5807 42.5263 12.3609 44.3065 14.5484 44.3065C16.7359 44.3065 18.5161 42.5263 18.5161 40.3387C18.5161 39.0757 17.9117 37.9621 16.9899 37.2346ZM14.5484 41.6613C13.8197 41.6613 13.2258 41.0675 13.2258 40.3387C13.2258 39.61 13.8197 39.0162 14.5484 39.0162C15.2771 39.0162 15.871 39.61 15.871 40.3387C15.871 41.0675 15.2771 41.6613 14.5484 41.6613Z" fill="url(#paint6_linear)"/>
<path d="M46.2903 72.0807C44.5934 72.0807 43.1545 73.1559 42.5884 74.6558C39.9538 74.8118 37.2597 74.5962 34.7019 73.972L34.0736 76.5404C36.3273 77.0919 38.6577 77.371 41 77.371C41.5158 77.371 42.029 77.326 42.5434 77.2983C43.0712 78.8721 44.5419 80.0162 46.2903 80.0162C48.4779 80.0162 50.2581 78.236 50.2581 76.0484C50.2581 73.8609 48.4779 72.0807 46.2903 72.0807ZM46.2903 77.371C45.5616 77.371 44.9677 76.7772 44.9677 76.0484C44.9677 75.3197 45.5616 74.7259 46.2903 74.7259C47.0191 74.7259 47.6129 75.3197 47.6129 76.0484C47.6129 76.7772 47.0191 77.371 46.2903 77.371Z" fill="url(#paint7_linear)"/>
<path d="M64.8064 69.4354C63.3476 69.4354 62.1613 68.2491 62.1613 66.7903H63.4839V64.1451H62.1613V61.4999H63.4839V58.8548H62.1613C62.1613 57.396 63.3476 56.2096 64.8064 56.2096C66.2653 56.2096 67.4516 57.396 67.4516 58.8548H70.0968C70.0968 55.9372 67.7241 53.5645 64.8064 53.5645C61.8888 53.5645 59.5161 55.9372 59.5161 58.8548H58.1935V61.4999H59.5161V64.1451H58.1935V66.7903H59.5161C59.5161 69.7079 61.8888 72.0806 64.8064 72.0806C67.7241 72.0806 70.0968 69.7079 70.0968 66.7903H67.4516C67.4516 68.2491 66.2653 69.4354 64.8064 69.4354Z" fill="url(#paint8_linear)"/>
<path d="M21.1613 56.2096H22.4839V53.5645H21.1613C17.5149 53.5645 14.5484 56.531 14.5484 60.1774V61.4999H13.2258V64.1451H14.5484V68.1128C14.5484 68.8416 13.9545 69.4354 13.2258 69.4354V72.0806H22.4839V69.4354H16.9674C17.1129 69.0215 17.1935 68.5771 17.1935 68.1128V64.1451H18.5161V61.4999H17.1935V60.1774C17.1935 57.9898 18.9737 56.2096 21.1613 56.2096Z" fill="url(#paint9_linear)"/>
<path d="M29.0968 61.5H26.4516V64.1452H29.0968V61.5Z" fill="url(#paint10_linear)"/>
<path d="M7.93547 61.5H5.29031V64.1452H7.93547V61.5Z" fill="url(#paint11_linear)"/>
<path d="M17.1935 45.629C7.71329 45.629 0 53.3423 0 62.8226C0 72.3028 7.71329 80.0161 17.1935 80.0161C20.8201 80.0161 24.2879 78.8999 27.224 76.789L25.6792 74.6412C23.1967 76.4266 20.2619 77.371 17.1935 77.371C9.1721 77.371 2.64516 70.844 2.64516 62.8226C2.64516 54.8011 9.1721 48.2742 17.1935 48.2742C25.215 48.2742 31.7419 54.8011 31.7419 62.8226C31.7419 66.4081 30.426 69.8521 28.0374 72.5211L30.008 74.2854C32.8317 71.131 34.3871 67.0601 34.3871 62.8226C34.3871 53.3423 26.6738 45.629 17.1935 45.629Z" fill="url(#paint12_linear)"/>
<path d="M76.7097 61.5H74.0645V64.1452H76.7097V61.5Z" fill="url(#paint13_linear)"/>
<path d="M55.5484 61.5H52.9032V64.1452H55.5484V61.5Z" fill="url(#paint14_linear)"/>
<path d="M64.8065 45.629C55.3262 45.629 47.6129 53.3423 47.6129 62.8226C47.6129 72.3028 55.3262 80.0161 64.8065 80.0161C68.433 80.0161 71.9008 78.8999 74.8369 76.789L73.2921 74.6412C70.8097 76.4266 67.8748 77.371 64.8065 77.371C56.785 77.371 50.2581 70.844 50.2581 62.8226C50.2581 54.8011 56.785 48.2742 64.8065 48.2742C72.8279 48.2742 79.3548 54.8011 79.3548 62.8226C79.3548 66.4081 78.0389 69.8521 75.6503 72.5211L77.6209 74.2854C80.4447 71.131 82 67.0601 82 62.8226C82 53.3423 74.2867 45.629 64.8065 45.629Z" fill="url(#paint15_linear)"/>
<defs>
<linearGradient id="paint0_linear" x1="41" y1="31.0806" x2="41" y2="7.27417" gradientUnits="userSpaceOnUse">
<stop stop-color="#9F2FFF"/>
<stop offset="1" stop-color="#0BB1D3"/>
</linearGradient>
<linearGradient id="paint1_linear" x1="51.5806" y1="20.5" x2="51.5806" y2="17.8549" gradientUnits="userSpaceOnUse">
<stop stop-color="#9F2FFF"/>
<stop offset="1" stop-color="#0BB1D3"/>
</linearGradient>
<linearGradient id="paint2_linear" x1="30.4194" y1="20.5" x2="30.4194" y2="17.8549" gradientUnits="userSpaceOnUse">
<stop stop-color="#9F2FFF"/>
<stop offset="1" stop-color="#0BB1D3"/>
</linearGradient>
<linearGradient id="paint3_linear" x1="41" y1="36.371" x2="41" y2="1.98389" gradientUnits="userSpaceOnUse">
<stop stop-color="#9F2FFF"/>
<stop offset="1" stop-color="#0BB1D3"/>
</linearGradient>
<linearGradient id="paint4_linear" x1="41" y1="52.2419" x2="41" y2="44.3064" gradientUnits="userSpaceOnUse">
<stop stop-color="#9F2FFF"/>
<stop offset="1" stop-color="#0BB1D3"/>
</linearGradient>
<linearGradient id="paint5_linear" x1="63.7299" y1="41.976" x2="63.7299" y2="25.7903" gradientUnits="userSpaceOnUse">
<stop stop-color="#9F2FFF"/>
<stop offset="1" stop-color="#0BB1D3"/>
</linearGradient>
<linearGradient id="paint6_linear" x1="16.5343" y1="44.3065" x2="16.5343" y2="27.4899" gradientUnits="userSpaceOnUse">
<stop stop-color="#9F2FFF"/>
<stop offset="1" stop-color="#0BB1D3"/>
</linearGradient>
<linearGradient id="paint7_linear" x1="42.1658" y1="80.0162" x2="42.1658" y2="72.0807" gradientUnits="userSpaceOnUse">
<stop stop-color="#9F2FFF"/>
<stop offset="1" stop-color="#0BB1D3"/>
</linearGradient>
<linearGradient id="paint8_linear" x1="64.1452" y1="72.0806" x2="64.1452" y2="53.5645" gradientUnits="userSpaceOnUse">
<stop stop-color="#9F2FFF"/>
<stop offset="1" stop-color="#0BB1D3"/>
</linearGradient>
<linearGradient id="paint9_linear" x1="17.8548" y1="72.0806" x2="17.8548" y2="53.5645" gradientUnits="userSpaceOnUse">
<stop stop-color="#9F2FFF"/>
<stop offset="1" stop-color="#0BB1D3"/>
</linearGradient>
<linearGradient id="paint10_linear" x1="27.7742" y1="64.1452" x2="27.7742" y2="61.5" gradientUnits="userSpaceOnUse">
<stop stop-color="#9F2FFF"/>
<stop offset="1" stop-color="#0BB1D3"/>
</linearGradient>
<linearGradient id="paint11_linear" x1="6.61289" y1="64.1452" x2="6.61289" y2="61.5" gradientUnits="userSpaceOnUse">
<stop stop-color="#9F2FFF"/>
<stop offset="1" stop-color="#0BB1D3"/>
</linearGradient>
<linearGradient id="paint12_linear" x1="17.1935" y1="80.0161" x2="17.1935" y2="45.629" gradientUnits="userSpaceOnUse">
<stop stop-color="#9F2FFF"/>
<stop offset="1" stop-color="#0BB1D3"/>
</linearGradient>
<linearGradient id="paint13_linear" x1="75.3871" y1="64.1452" x2="75.3871" y2="61.5" gradientUnits="userSpaceOnUse">
<stop stop-color="#9F2FFF"/>
<stop offset="1" stop-color="#0BB1D3"/>
</linearGradient>
<linearGradient id="paint14_linear" x1="54.2258" y1="64.1452" x2="54.2258" y2="61.5" gradientUnits="userSpaceOnUse">
<stop stop-color="#9F2FFF"/>
<stop offset="1" stop-color="#0BB1D3"/>
</linearGradient>
<linearGradient id="paint15_linear" x1="64.8065" y1="80.0161" x2="64.8065" y2="45.629" gradientUnits="userSpaceOnUse">
<stop stop-color="#9F2FFF"/>
<stop offset="1" stop-color="#0BB1D3"/>
</linearGradient>
</defs>
</svg>
