<svg width="82" height="82" viewBox="0 0 82 82" fill="none" xmlns="http://www.w3.org/2000/svg">
<path d="M47.4062 8.96875H39.7188V6.40625H47.4062V8.96875ZM37.1562 6.40625H34.5938V8.96875H37.1562V6.40625ZM29.4688 68.6571L32.5617 71.75L29.4688 74.8429C28.9844 75.3273 28.3413 75.5938 27.6571 75.5938H26.9062C25.493 75.5938 24.3438 74.4445 24.3438 73.0312V70.4688C24.3438 69.0555 25.493 67.9062 26.9062 67.9062H27.6571C28.3413 67.9062 28.9844 68.1727 29.4688 68.6571ZM28.9383 71.75L27.6571 70.4688H26.9062V73.0312H27.6571L28.9383 71.75ZM44.8438 70.4688V73.0312C44.8438 74.4445 43.6945 75.5938 42.2812 75.5938H39.7188C38.3055 75.5938 37.1562 74.4445 37.1562 73.0312V70.4688C37.1562 69.0555 38.3055 67.9062 39.7188 67.9062H42.2812C43.6945 67.9062 44.8438 69.0555 44.8438 70.4688ZM42.2825 73.0312L42.2812 70.4688H39.7188V73.0312H42.2825ZM57.6562 70.4688V73.0312C57.6562 74.4445 56.507 75.5938 55.0938 75.5938H54.3429C53.6588 75.5938 53.0156 75.3273 52.5312 74.8429L49.4383 71.75L52.5312 68.6571C53.0156 68.1727 53.6588 67.9062 54.3429 67.9062H55.0938C56.507 67.9062 57.6562 69.0555 57.6562 70.4688ZM55.095 73.0312L55.0938 70.4688H54.3429L53.0617 71.75L54.3429 73.0312H55.095ZM20.5 52.5312C14.1424 52.5312 8.96875 47.3576 8.96875 41C8.96875 34.6424 14.1424 29.4688 20.5 29.4688C26.8576 29.4688 32.0312 34.6424 32.0312 41C32.0312 47.3576 26.8576 52.5312 20.5 52.5312ZM20.5 49.9688C25.4456 49.9688 29.4688 45.9456 29.4688 41C29.4688 36.0544 25.4456 32.0312 20.5 32.0312C15.5544 32.0312 11.5312 36.0544 11.5312 41C11.5312 45.9456 15.5544 49.9688 20.5 49.9688ZM20.5 47.4062C16.9676 47.4062 14.0938 44.5324 14.0938 41C14.0938 37.4676 16.9676 34.5938 20.5 34.5938C24.0324 34.5938 26.9062 37.4676 26.9062 41C26.9062 44.5324 24.0324 47.4062 20.5 47.4062ZM20.5 44.8438C22.6192 44.8438 24.3438 43.1192 24.3438 41C24.3438 38.8808 22.6192 37.1562 20.5 37.1562C18.3808 37.1562 16.6562 38.8808 16.6562 41C16.6562 43.1192 18.3808 44.8438 20.5 44.8438ZM80.7188 42.2812C80.7188 50.7593 73.8218 57.6562 65.3438 57.6562V74.3125C65.3438 77.8449 62.4699 80.7188 58.9375 80.7188H23.0625C19.5301 80.7188 16.6562 77.8449 16.6562 74.3125V60.2188H15.6607L14.7472 56.6287C14.3385 56.4762 13.9285 56.3058 13.5223 56.1162L10.332 58.0124L3.48756 51.168L5.38381 47.9777C5.19547 47.5715 5.02378 47.1628 4.87131 46.7528L1.28125 45.8393V36.1594L4.87131 35.2459C5.02378 34.8372 5.19419 34.4272 5.38381 34.021L3.48756 30.832L10.332 23.9876L13.5223 25.8838C13.9285 25.6955 14.3372 25.5238 14.7472 25.3713L15.6607 21.7812H16.6562V7.6875C16.6562 4.15509 19.5301 1.28125 23.0625 1.28125H58.9375C62.4699 1.28125 65.3438 4.15509 65.3438 7.6875V26.9062C73.8218 26.9062 80.7188 33.8032 80.7188 42.2812ZM19.2188 21.7812H21.7812V11.5312H60.2188V27.8031C61.0439 27.5097 61.8985 27.2868 62.7812 27.1382V7.6875C62.7812 5.56831 61.0567 3.84375 58.9375 3.84375H23.0625C20.9433 3.84375 19.2188 5.56831 19.2188 7.6875V21.7812ZM49.9688 42.2812C49.9688 36.6053 53.0681 31.6507 57.6562 28.987V14.0938H24.3438V21.7812H25.3393L26.2528 25.3713C26.6615 25.5238 27.0715 25.6942 27.4777 25.8838L30.668 23.9876L37.5124 30.832L35.6162 34.021C35.8045 34.4272 35.9762 34.8372 36.1287 35.2459L39.7188 36.1607V45.8406L36.1287 46.7541C35.9762 47.1628 35.8058 47.5728 35.6162 47.979L37.5124 51.1693L30.668 58.0137L27.4777 56.1175C27.0715 56.3058 26.6628 56.4775 26.2528 56.63L25.3393 60.2188H24.3438V62.7812H57.6562V55.5755C53.0681 52.9118 49.9688 47.9572 49.9688 42.2812ZM16.2078 54.4237L16.8843 54.6402L17.6518 57.6562H23.3469L24.1144 54.6402L24.7909 54.4237C25.5084 54.1943 26.2323 53.8907 26.9473 53.5217L27.5789 53.1962L30.2631 54.7927L34.2901 50.7657L32.6937 48.0815L33.0191 47.4498C33.3881 46.7349 33.6917 46.0097 33.9211 45.2935L34.1376 44.617L37.1562 43.8482V38.1531L34.1402 37.3856L33.9237 36.7091C33.6943 35.9929 33.3907 35.2677 33.0217 34.5515L32.6962 33.9198L34.2927 31.2356L30.2657 27.2086L27.5815 28.8051L26.9498 28.4796C26.2349 28.1106 25.5097 27.807 24.7935 27.5776L24.117 27.3611L23.3482 24.3438H17.6531L16.8856 27.3598L16.2091 27.5763C15.4916 27.8057 14.7677 28.1093 14.0528 28.4783L13.4211 28.8038L10.7369 27.2073L6.70991 31.2343L8.30634 33.9185L7.98091 34.5502C7.61191 35.2664 7.30825 35.9916 7.07891 36.7078L6.86237 37.3843L3.84375 38.1518V43.8469L6.85981 44.6144L7.07634 45.2909C7.30569 46.0084 7.60934 46.7323 7.97834 47.4473L8.30378 48.0789L6.70734 50.7631L10.7343 54.7901L13.4185 53.1937L14.0502 53.5191C14.7664 53.8907 15.4916 54.1943 16.2078 54.4237ZM62.7812 57.4243C61.8985 57.2757 61.0439 57.0515 60.2188 56.7594V65.3438H21.7812V60.2188H19.2188V74.3125C19.2188 76.4317 20.9433 78.1562 23.0625 78.1562H58.9375C61.0567 78.1562 62.7812 76.4317 62.7812 74.3125V57.4243ZM65.3438 55.0938C68.7006 55.0938 71.75 53.7856 74.037 51.6664C73.0633 47.6766 69.5091 44.8438 65.3438 44.8438C61.1784 44.8438 57.6242 47.6766 56.6505 51.6664C58.9375 53.7856 61.9869 55.0938 65.3438 55.0938ZM65.3438 42.2812C67.4629 42.2812 69.1875 40.5567 69.1875 38.4375C69.1875 36.3183 67.4629 34.5938 65.3438 34.5938C63.2246 34.5938 61.5 36.3183 61.5 38.4375C61.5 40.5567 63.2246 42.2812 65.3438 42.2812ZM78.1562 42.2812C78.1562 35.2164 72.4086 29.4688 65.3438 29.4688C58.2789 29.4688 52.5312 35.2164 52.5312 42.2812C52.5312 44.9168 53.3333 47.3691 54.703 49.4076C55.8856 46.5247 58.1726 44.2762 61.0131 43.1282C59.746 41.9571 58.9375 40.2953 58.9375 38.4375C58.9375 34.9051 61.8113 32.0312 65.3438 32.0312C68.8762 32.0312 71.75 34.9051 71.75 38.4375C71.75 40.2953 70.9415 41.9571 69.6744 43.1282C72.5149 44.2762 74.8019 46.5247 75.9845 49.4076C77.3542 47.3691 78.1562 44.9168 78.1562 42.2812ZM56.6774 24.3438L39.7188 32.8231V15.8644L56.6774 24.3438ZM42.2812 28.6769L50.9476 24.3438L42.2812 20.0106V28.6769Z" fill="url(#paint0_linear)"/>
<defs>
<linearGradient id="paint0_linear" x1="41" y1="80.7188" x2="41" y2="1.28125" gradientUnits="userSpaceOnUse">
<stop stop-color="#9F2FFF"/>
<stop offset="1" stop-color="#0BB1D3"/>
</linearGradient>
</defs>
</svg>
