<svg width="82" height="82" viewBox="0 0 82 82" fill="none" xmlns="http://www.w3.org/2000/svg">
<g clip-path="url(#clip0)">
<path d="M52.725 43.138L60.1945 25.4446C60.4525 24.8335 60.1663 24.1289 59.5551 23.871C58.9445 23.6129 58.2395 23.8992 57.9815 24.5103L51.3264 40.2747C50.8639 39.2562 41.0447 17.636 40.5858 16.6259L67.0922 2.92917L60.1645 19.3396C59.9065 19.9507 60.1927 20.6554 60.8038 20.9132C61.4148 21.1712 62.1193 20.8849 62.3775 20.2739L69.788 2.71954C70.4984 1.03701 68.7142 -0.612359 67.0922 0.224898L38.4685 15.0159C38.2224 15.1434 38.0198 15.3612 37.9114 15.6205L30.2087 34.0869L27.0696 30.1926L27.0695 30.1924C26.6968 29.7302 26.1427 29.4653 25.5492 29.4653H10.2775C9.74872 29.4653 9.27372 29.8188 9.12446 30.3301L5.03314 44.3574C4.79356 45.1791 5.11034 46.051 5.82172 46.5271C6.5299 47.0013 7.45668 46.9661 8.12802 46.4293L13.6246 42.0319L20.3794 58.5605C20.5074 58.8803 20.8006 59.1609 21.1777 59.2657L36.9911 63.54C37.6309 63.7123 38.2909 63.3342 38.464 62.694C38.6372 62.0535 38.2584 61.3942 37.618 61.2211L24.862 57.7731L50.6057 44.9866C50.9161 46.0801 56.4114 65.4448 56.6746 66.3719L43.0573 62.6912C42.4175 62.5188 41.7575 62.8967 41.5844 63.5373C41.4113 64.1777 41.79 64.8371 42.4304 65.0102L57.4394 69.0672L59.6114 76.7207C59.7979 77.377 60.301 77.8799 60.9569 78.0658L74.5561 81.9238C75.3525 82.1498 76.182 81.8631 76.6688 81.1934C77.1557 80.5235 77.1726 79.6463 76.7119 78.9584L52.725 43.138ZM23.8383 55.5995L31.6487 36.8746V36.8745L39.0667 19.0907C39.5622 20.1817 49.2976 41.6176 49.793 42.7084L47.8869 43.6552L23.8383 55.5995ZM25.3342 31.8676L29.1564 36.6093C29.0728 36.8094 21.6931 54.502 21.5025 54.9589L12.0659 31.8676H25.3342ZM7.73726 43.6654L10.4672 34.3058L12.6772 39.7137L7.73726 43.6654ZM61.8536 75.8234C61.5546 74.7697 54.9214 51.3958 54.5963 50.2501L74.0355 79.2793L61.8536 75.8234Z" fill="url(#paint0_linear)"/>
</g>
<defs>
<linearGradient id="paint0_linear" x1="41.0001" y1="0" x2="41.0001" y2="82" gradientUnits="userSpaceOnUse">
<stop stop-color="#9F2FFF"/>
<stop offset="1" stop-color="#0BB1D3"/>
</linearGradient>
<clipPath id="clip0">
<rect width="82" height="82" fill="white"/>
</clipPath>
</defs>
</svg>
