<svg width="82" height="82" viewBox="0 0 82 82" fill="none" xmlns="http://www.w3.org/2000/svg">
<path d="M0 68.7742H10.5806V78.0323C10.5806 80.2196 12.3611 82 14.5484 82H67.4516C69.6389 82 71.4194 80.2196 71.4194 78.0323V68.7742H82V0H0V68.7742ZM68.7742 78.0323C68.7742 78.7607 68.1801 79.3548 67.4516 79.3548H14.5484C13.8199 79.3548 13.2258 78.7607 13.2258 78.0323V56.871C13.2258 56.1425 13.8199 55.5484 14.5484 55.5484H32.7855C33.5721 55.5484 34.3329 55.3185 34.9864 54.8819L37.6206 53.1254C37.8389 52.9801 38.0926 52.9032 38.3548 52.9032H67.4516C68.1801 52.9032 68.7742 53.4974 68.7742 54.2258V78.0323ZM71.4194 66.129V54.2258C71.4194 52.0385 69.6389 50.2581 67.4516 50.2581H38.3548C37.5689 50.2581 36.8075 50.488 36.154 50.9245L33.5179 52.6811C33.3002 52.8264 33.0471 52.9032 32.7855 52.9032H14.5484C12.3611 52.9032 10.5806 54.6837 10.5806 56.871V66.129H2.64516V13.2258H79.3548V66.129H71.4194ZM79.3548 2.64516V10.5806H2.64516V2.64516H79.3548ZM7.93548 7.93548H5.29032V5.29032H7.93548V7.93548ZM13.2258 7.93548H10.5806V5.29032H13.2258V7.93548ZM18.5161 7.93548H15.871V5.29032H18.5161V7.93548ZM15.871 76.7097H44.9677V58.1936H15.871V76.7097ZM18.5161 71.4194H21.1613V74.0645H18.5161V71.4194ZM37.0323 68.7742H34.3871V66.129H37.0323V68.7742ZM39.6774 66.129H42.3226V68.7742H39.6774V66.129ZM29.0968 68.7742V66.129H31.7419V68.7742H29.0968ZM37.0323 71.4194V74.0645H23.8065V71.4194H37.0323ZM34.3871 63.4839V60.8387H37.0323V63.4839H34.3871ZM31.7419 63.4839H29.0968V60.8387H31.7419V63.4839ZM26.4516 63.4839H23.8065V60.8387H26.4516V63.4839ZM26.4516 66.129V68.7742H23.8065V66.129H26.4516ZM21.1613 68.7742H18.5161V66.129H21.1613V68.7742ZM39.6774 74.0645V71.4194H42.3226V74.0645H39.6774ZM42.3226 63.4839H39.6774V60.8387H42.3226V63.4839ZM21.1613 60.8387V63.4839H18.5161V60.8387H21.1613ZM47.6129 76.7097H66.129V58.1936H47.6129V76.7097ZM50.2581 71.4194H52.9032V74.0645H50.2581V71.4194ZM58.1936 66.129V68.7742H55.5484V66.129H58.1936ZM55.5484 63.4839V60.8387H58.1936V63.4839H55.5484ZM60.8387 66.129H63.4839V68.7742H60.8387V66.129ZM58.1936 71.4194V74.0645H55.5484V71.4194H58.1936ZM52.9032 68.7742H50.2581V66.129H52.9032V68.7742ZM60.8387 74.0645V71.4194H63.4839V74.0645H60.8387ZM63.4839 63.4839H60.8387V60.8387H63.4839V63.4839ZM52.9032 60.8387V63.4839H50.2581V60.8387H52.9032ZM49.7621 21.9995L64.2788 33.6134L49.7621 45.2267L48.1102 43.1608L60.045 33.6134L48.1102 24.0654L49.7621 21.9995ZM33.8911 24.0654L21.9563 33.6134L33.8911 43.1608L32.2392 45.2267L17.7225 33.6134L32.2392 21.9995L33.8911 24.0654ZM44.4279 19.4131L46.9329 20.2643L37.5721 47.8137L35.0671 46.9619L44.4279 19.4131Z" fill="url(#paint0_linear)"/>
<defs>
<linearGradient id="paint0_linear" x1="41" y1="82" x2="41" y2="0" gradientUnits="userSpaceOnUse">
<stop stop-color="#9F2FFF"/>
<stop offset="1" stop-color="#0BB1D3"/>
</linearGradient>
</defs>
</svg>
